<svg xmlns="http://www.w3.org/2000/svg" viewBox="0 0 1600 500">

  <!-- Flat navy background -->
  <rect width="1600" height="500" fill="#0c2044"/>

  <!-- Primary grid lines -->
  <path d="M1350 -86L1458 -72L1566 -58L1674 -44L1782 -30 M737 -82L845 -68L953 -54L1061 -40L1169 -26L1277 -12L1385 2L1493 16L1601 30L1709 44 M16 -92L124 -78L232 -64L340 -50L448 -36L556 -22L664 -8L772 6L880 20L988 34L1096 48L1204 62L1312 76L1420 90L1528 104L1636 118L1744 132 M-165 -32L-57 -18L51 -4L159 10L267 24L375 38L483 52L591 66L699 80L807 94L915 108L1023 122L1131 136L1239 150L1347 164L1455 178L1563 192L1671 206L1779 220 M-130 56L-22 70L86 84L194 98L302 112L410 126L518 140L626 154L734 168L842 182L950 196L1058 210L1166 224L1274 238L1382 252L1490 266L1598 280L1706 294 M-95 144L13 158L121 172L229 186L337 200 M769 256L877 270L985 284L1093 298L1201 312L1309 326L1417 340L1525 354L1633 368L1741 382 M696 330L804 344L912 358L1020 372L1128 386L1236 400L1344 414L1452 428L1560 442L1668 456L1776 470 M731 418L839 432L947 446L1055 460L1163 474L1271 488L1379 502L1487 516L1595 530L1703 544 M766 506L874 520L982 534L1090 548L1198 562L1306 576L1414 590 M693 580L801 594 M-95 144L-60 232 M-92 -106L-57 -18L-22 70L13 158L48 246 M16 -92L51 -4L86 84L121 172L156 260 M89 -166L124 -78L159 10L194 98L229 186L264 274 M197 -152L232 -64L267 24L302 112L337 200 M305 -138L340 -50L375 38L410 126L445 214 M413 -124L448 -36L483 52L518 140L553 228 M521 -110L556 -22L591 66L626 154L661 242 M766 506L801 594 M629 -96L664 -8L699 80L734 168L769 256L804 344L839 432L874 520L909 608 M737 -82L772 6L807 94L842 182L877 270L912 358L947 446L982 534L1017 622 M810 -156L845 -68L880 20L915 108L950 196L985 284L1020 372L1055 460L1090 548L1125 636 M918 -142L953 -54L988 34L1023 122L1058 210L1093 298L1128 386L1163 474L1198 562L1233 650 M1026 -128L1061 -40L1096 48L1131 136L1166 224L1201 312L1236 400L1271 488L1306 576L1341 664 M1134 -114L1169 -26L1204 62L1239 150L1274 238L1309 326L1344 414L1379 502L1414 590 M1242 -100L1277 -12L1312 76L1347 164L1382 252L1417 340L1452 428L1487 516L1522 604 M1350 -86L1385 2L1420 90L1455 178L1490 266L1525 354L1560 442L1595 530L1630 618 M1458 -72L1493 16L1528 104L1563 192L1598 280L1633 368L1668 456L1703 544 M1566 -58L1601 30L1636 118L1671 206L1706 294 M1674 -44L1709 44"
        stroke="#ffffff" stroke-width="2" fill="none"
        stroke-linejoin="round" stroke-linecap="round"/>

  <!-- Diagonal connections (lighter for depth) -->
  <path d="M702 -170L845 -68 M810 -156L953 -54 M918 -142L1061 -40 M1026 -128L1169 -26 M1134 -114L1277 -12 M1242 -100L1385 2 M1350 -86L1493 16 M1458 -72L1601 30 M1566 -58L1709 44 M1674 -44L1817 58 M-19 -180L124 -78 M89 -166L232 -64 M197 -152L340 -50 M305 -138L448 -36 M413 -124L556 -22 M521 -110L664 -8 M629 -96L772 6 M737 -82L880 20 M845 -68L988 34 M953 -54L1096 48 M1061 -40L1204 62 M1169 -26L1312 76 M1277 -12L1420 90 M1385 2L1528 104 M1493 16L1636 118 M1601 30L1744 132 M-200 -120L-57 -18 M-92 -106L51 -4 M16 -92L159 10 M124 -78L267 24 M232 -64L375 38 M340 -50L483 52 M448 -36L591 66 M556 -22L699 80 M664 -8L807 94 M772 6L915 108 M880 20L1023 122 M988 34L1131 136 M1096 48L1239 150 M1204 62L1347 164 M1312 76L1455 178 M1420 90L1563 192 M1528 104L1671 206 M1636 118L1779 220 M-165 -32L-22 70 M-57 -18L86 84 M51 -4L194 98 M159 10L302 112 M267 24L410 126 M375 38L518 140 M483 52L626 154 M591 66L734 168 M699 80L842 182 M807 94L950 196 M915 108L1058 210 M1023 122L1166 224 M1131 136L1274 238 M1239 150L1382 252 M1347 164L1490 266 M1455 178L1598 280 M1563 192L1706 294 M1671 206L1814 308 M-130 56L13 158 M-22 70L121 172 M86 84L229 186 M194 98L337 200 M302 112L445 214 M410 126L553 228 M518 140L661 242 M626 154L769 256 M734 168L877 270 M842 182L985 284 M950 196L1093 298 M1058 210L1201 312 M1166 224L1309 326 M1274 238L1417 340 M1382 252L1525 354 M1490 266L1633 368 M1598 280L1741 382 M-203 130L-60 232 M-95 144L48 246 M13 158L156 260 M121 172L264 274 M229 186L372 288 M661 242L804 344 M769 256L912 358 M877 270L1020 372 M985 284L1128 386 M1093 298L1236 400 M1201 312L1344 414 M1309 326L1452 428 M1417 340L1560 442 M1525 354L1668 456 M1633 368L1776 470 M696 330L839 432 M804 344L947 446 M912 358L1055 460 M1020 372L1163 474 M1128 386L1271 488 M1236 400L1379 502 M1344 414L1487 516 M1452 428L1595 530 M1560 442L1703 544 M1668 456L1811 558 M731 418L874 520 M839 432L982 534 M947 446L1090 548 M1055 460L1198 562 M1163 474L1306 576 M1271 488L1414 590 M1379 502L1522 604 M1487 516L1630 618 M1595 530L1738 632 M658 492L801 594 M766 506L909 608 M874 520L1017 622 M982 534L1125 636 M1090 548L1233 650 M1198 562L1341 664 M1306 576L1449 678 M693 580L836 682"
        stroke="rgba(255,255,255,0.3)" stroke-width="1" fill="none"
        stroke-linecap="round"/>

  <!-- Grid point dots -->
  <g fill="rgba(255,255,255,0.65)">
    <circle cx="1385" cy="2" r="2.8"/>
    <circle cx="1493" cy="16" r="2.8"/>
    <circle cx="1601" cy="30" r="2.8"/>
    <circle cx="664" cy="-8" r="2.8"/>
    <circle cx="772" cy="6" r="2.8"/>
    <circle cx="880" cy="20" r="2.8"/>
    <circle cx="988" cy="34" r="2.8"/>
    <circle cx="1096" cy="48" r="2.8"/>
    <circle cx="1204" cy="62" r="2.8"/>
    <circle cx="1312" cy="76" r="2.8"/>
    <circle cx="1420" cy="90" r="2.8"/>
    <circle cx="1528" cy="104" r="2.8"/>
    <circle cx="51" cy="-4" r="2.8"/>
    <circle cx="159" cy="10" r="2.8"/>
    <circle cx="267" cy="24" r="2.8"/>
    <circle cx="375" cy="38" r="2.8"/>
    <circle cx="483" cy="52" r="2.8"/>
    <circle cx="591" cy="66" r="2.8"/>
    <circle cx="699" cy="80" r="2.8"/>
    <circle cx="807" cy="94" r="2.8"/>
    <circle cx="915" cy="108" r="2.8"/>
    <circle cx="1023" cy="122" r="2.8"/>
    <circle cx="1131" cy="136" r="2.8"/>
    <circle cx="1239" cy="150" r="2.8"/>
    <circle cx="1347" cy="164" r="2.8"/>
    <circle cx="1455" cy="178" r="2.8"/>
    <circle cx="1563" cy="192" r="2.8"/>
    <circle cx="86" cy="84" r="2.8"/>
    <circle cx="194" cy="98" r="2.8"/>
    <circle cx="302" cy="112" r="2.8"/>
    <circle cx="410" cy="126" r="2.8"/>
    <circle cx="518" cy="140" r="2.8"/>
    <circle cx="626" cy="154" r="2.8"/>
    <circle cx="734" cy="168" r="2.8"/>
    <circle cx="842" cy="182" r="2.8"/>
    <circle cx="950" cy="196" r="2.8"/>
    <circle cx="1058" cy="210" r="2.8"/>
    <circle cx="1166" cy="224" r="2.8"/>
    <circle cx="1274" cy="238" r="2.8"/>
    <circle cx="1382" cy="252" r="2.8"/>
    <circle cx="1490" cy="266" r="2.8"/>
    <circle cx="1598" cy="280" r="2.8"/>
    <circle cx="13" cy="158" r="2.8"/>
    <circle cx="121" cy="172" r="2.8"/>
    <circle cx="229" cy="186" r="2.8"/>
    <circle cx="877" cy="270" r="2.8"/>
    <circle cx="985" cy="284" r="2.8"/>
    <circle cx="1093" cy="298" r="2.8"/>
    <circle cx="1201" cy="312" r="2.8"/>
    <circle cx="1309" cy="326" r="2.8"/>
    <circle cx="1417" cy="340" r="2.8"/>
    <circle cx="1525" cy="354" r="2.8"/>
    <circle cx="804" cy="344" r="2.8"/>
    <circle cx="912" cy="358" r="2.8"/>
    <circle cx="1020" cy="372" r="2.8"/>
    <circle cx="1128" cy="386" r="2.8"/>
    <circle cx="1236" cy="400" r="2.8"/>
    <circle cx="1344" cy="414" r="2.8"/>
    <circle cx="1452" cy="428" r="2.8"/>
    <circle cx="1560" cy="442" r="2.8"/>
    <circle cx="839" cy="432" r="2.8"/>
    <circle cx="947" cy="446" r="2.8"/>
    <circle cx="1055" cy="460" r="2.8"/>
    <circle cx="1163" cy="474" r="2.8"/>
    <circle cx="1271" cy="488" r="2.8"/>
    <circle cx="1379" cy="502" r="2.8"/>
  </g>

  <!-- Open accent circles at select vertices -->
  <g stroke="#ffffff" stroke-width="2" fill="none">
    <circle cx="880" cy="20" r="10"/>
    <circle cx="1347" cy="164" r="10"/>
    <circle cx="1058" cy="210" r="10"/>
    <circle cx="877" cy="270" r="10"/>
    <circle cx="1344" cy="414" r="10"/>
    <circle cx="1055" cy="460" r="10"/>
  </g>

  <!-- ═══════════════════════════════════════════════════════ -->
  <!--                    TEXT AREA                            -->
  <!-- ═══════════════════════════════════════════════════════ -->

  <!-- ZORB heading -->
  <text x="55" y="370"
        font-family="system-ui, -apple-system, 'Segoe UI', Helvetica, sans-serif"
        font-size="152" font-weight="700" fill="#ffffff"
        letter-spacing="-4">ZORB</text>

  <!-- Subtitle -->
  <text x="62" y="428"
        font-family="system-ui, -apple-system, 'Segoe UI', Helvetica, sans-serif"
        font-size="28" font-weight="400" fill="rgba(190,210,235,0.8)"
        letter-spacing="0.5">2026 Solana Privacy Hackathon Submission</text>

</svg>